<svg width="130" height="124" viewBox="0 0 130 124" xmlns="http://www.w3.org/2000/svg"><title>Capa_1</title><g fill="none" fill-rule="evenodd"><path d="M62.02 0c34.255 0 62.018 27.683 62.018 61.833s-27.766 61.833-62.017 61.833C27.77 123.666 0 95.983 0 61.833S27.767 0 62.02 0z" fill="#0074C8"/><path d="M59.097 48.077v6.932H28.372c-3.229 0-3.007 3.92 0 3.92h24.074c5.496.214 7.765 2.779 7.765 8.746 0 5.968-1.976 8.8-7.765 9.248H19.158v-7.042H51.11c3.385 0 3.16-3.803 0-3.803H27.704c-5.598 0-8.543-3.233-8.543-8.977 0-6.582 3.287-9.02 8.543-9.02l31.393-.004zM69.356 55.038V69.93h23.7c4.026 0 4.936-2.192 4.936-7.448 0-5.365-1.523-7.447-5.89-7.447l-22.746.003zm-7.824-17.95h7.71v11.07h23.543c8.664 0 12.583 4.573 12.583 13.645 0 10.049-2.431 15.12-12.19 15.12H61.533V37.088zM20.956 44.401h-.483v-3.56h2.473v.425h-1.99v1.092h1.75v.428h-1.75V44.4zM26.339 42.938l-.526-1.566-.572 1.566h1.098zm-1.244.428l-.373 1.035h-.498l1.344-3.562h.547L27.41 44.4h-.529l-.354-1.035h-1.431zM29.763 42.463h1.12c.088 0 .177-.007.264-.021a.604.604 0 0 0 .23-.09.506.506 0 0 0 .168-.186.822.822 0 0 0 0-.645.478.478 0 0 0-.373-.255 1.532 1.532 0 0 0-.202 0h-1.207v1.21-.013zm0 1.938h-.482v-3.56h1.652c.144 0 .288.015.429.044.134.027.261.079.376.152a.8.8 0 0 1 .268.291.965.965 0 0 1 .102.469c.003.114-.011.228-.043.338a.778.778 0 0 1-.28.4 1.866 1.866 0 0 1-.174.117c.05.02.1.043.149.069a.444.444 0 0 1 .134.111.56.56 0 0 1 .096.19c.029.1.044.205.047.31l.03.644a.927.927 0 0 0 0 .128.334.334 0 0 0 .029.093.242.242 0 0 0 .056.074.445.445 0 0 0 .09.062v.08h-.591a1.296 1.296 0 0 1-.044-.21 3.622 3.622 0 0 1-.028-.267 1.69 1.69 0 0 1 0-.251v-.168c0-.074-.006-.149-.018-.223a.461.461 0 0 0-.084-.204.473.473 0 0 0-.193-.15.845.845 0 0 0-.342-.055h-1.179v1.529-.013zM37.143 44.401V41.41l-1.004 2.992h-.48l-1.004-2.986V44.401h-.466v-3.56h.69l1.02 3.011 1.014-3.01h.687v3.56h-.457zM41.56 42.938l-.53-1.566-.571 1.566h1.1zm-1.244.428l-.374 1.035h-.497l1.343-3.562h.548l1.272 3.562h-.53l-.354-1.035h-1.408zM46.822 41.911a.929.929 0 0 0-.165-.378.86.86 0 0 0-.255-.226.935.935 0 0 0-.311-.106 1.64 1.64 0 0 0-.283-.028c-.156 0-.31.03-.454.09-.142.06-.268.152-.37.267a1.264 1.264 0 0 0-.252.44c-.066.2-.097.41-.093.62-.002.197.018.394.059.586.034.17.101.33.199.472.094.132.22.239.367.31a1.247 1.247 0 0 0 .827.077.881.881 0 0 0 .31-.142c.11-.085.202-.19.271-.31.093-.155.156-.325.184-.503h.466c-.025.198-.082.39-.167.57a1.55 1.55 0 0 1-.268.392 1.29 1.29 0 0 1-.31.244 1.45 1.45 0 0 1-.597.19h-.194a1.73 1.73 0 0 1-.59-.106 1.394 1.394 0 0 1-.517-.328 1.633 1.633 0 0 1-.364-.587 2.474 2.474 0 0 1-.137-.874 2.344 2.344 0 0 1 .115-.75 1.71 1.71 0 0 1 .33-.586c.144-.165.324-.295.526-.382.416-.169.88-.182 1.306-.037.163.059.314.147.445.26a1.293 1.293 0 0 1 .417.806l-.495.02zM49.654 44.401h-.282v-3.56h.282v3.56zM53.89 42.938l-.528-1.566-.572 1.566h1.1zm-1.243.428l-.398 1.035h-.498l1.344-3.562h.547l1.294 3.562h-.51l-.355-1.035h-1.424zM58.858 41.883a.745.745 0 0 0-.078-.334.677.677 0 0 0-.208-.224.832.832 0 0 0-.28-.117 1.379 1.379 0 0 0-.311-.035c-.086.001-.171.008-.255.022a.832.832 0 0 0-.268.09.596.596 0 0 0-.208.19.56.56 0 0 0-.084.31.403.403 0 0 0 .267.403c.05.02.103.036.156.049l1.02.232c.108.027.212.065.31.115a.85.85 0 0 1 .427.465c.044.12.065.246.062.372a.965.965 0 0 1-.13.527.99.99 0 0 1-.34.33c-.14.081-.294.139-.454.17a2.52 2.52 0 0 1-.901.018 1.518 1.518 0 0 1-.311-.083 1.012 1.012 0 0 1-.209-.112 1.582 1.582 0 0 1-.143-.115.98.98 0 0 1-.31-.428 1.62 1.62 0 0 1-.07-.474h.455a.81.81 0 0 0 .09.403.748.748 0 0 0 .23.254c.094.065.2.111.311.137.114.026.231.04.348.04.098 0 .196-.008.293-.022.107-.013.212-.042.31-.087a.662.662 0 0 0 .24-.18.467.467 0 0 0 .097-.31.656.656 0 0 0-.038-.235.39.39 0 0 0-.124-.167.81.81 0 0 0-.233-.121 3.509 3.509 0 0 0-.367-.106l-.731-.167a1.802 1.802 0 0 1-.218-.068.844.844 0 0 1-.454-.388.764.764 0 0 1-.087-.385c0-.138.023-.275.068-.406a.955.955 0 0 1 .218-.353c.109-.109.239-.193.383-.248.178-.066.366-.098.556-.093.253-.01.505.03.74.12.163.069.306.175.417.31.09.109.153.236.184.373.026.113.043.228.053.344l-.423-.016zM26.634 81.72a1.194 1.194 0 0 0-.146-.555 1.08 1.08 0 0 0-.336-.356 1.324 1.324 0 0 0-.45-.192 2.211 2.211 0 0 0-.896-.019c-.15.023-.293.071-.426.143a.957.957 0 0 0-.336.31.894.894 0 0 0-.137.52.642.642 0 0 0 .215.518c.063.056.136.1.214.13.08.033.162.06.246.081l1.633.372c.178.04.352.102.516.183.314.153.558.42.681.748.07.19.104.392.1.595.01.294-.063.586-.212.84-.135.217-.32.398-.541.527a2.33 2.33 0 0 1-.725.273 4.036 4.036 0 0 1-1.44.028 2.44 2.44 0 0 1-.485-.136 1.625 1.625 0 0 1-.336-.18 2.648 2.648 0 0 1-.227-.183 1.572 1.572 0 0 1-.473-.685c-.073-.246-.11-.5-.108-.757h.734c-.009.223.04.444.143.642.092.157.218.29.37.39.152.104.323.177.504.218.182.042.369.064.556.065.157-.002.314-.015.47-.037.169-.023.333-.07.488-.14.148-.066.279-.165.383-.288a.752.752 0 0 0 .155-.496 1.051 1.051 0 0 0-.059-.376.62.62 0 0 0-.199-.266 1.304 1.304 0 0 0-.373-.196 6.489 6.489 0 0 0-.585-.17l-1.17-.27a2.89 2.89 0 0 1-.35-.108 1.353 1.353 0 0 1-.728-.62 1.237 1.237 0 0 1-.14-.62c0-.223.038-.443.112-.652.079-.207.202-.394.36-.549.177-.175.39-.31.622-.397.285-.107.588-.158.893-.151.404-.017.807.05 1.185.195.257.104.485.268.665.477.145.173.246.377.296.596.041.181.07.366.084.552l-.747-.004zM34.064 83.407l-.842-2.508h-.016l-.917 2.508h1.775zm-2.015.682l-.597 1.66h-.796l2.149-5.7h.877l2.084 5.702h-.843l-.566-1.659-2.308-.003zM40.051 85.07h2.896v.681h-3.67v-5.696h.774v5.014zM50.538 81.767a1.47 1.47 0 0 0-.261-.62 1.364 1.364 0 0 0-.41-.36 1.496 1.496 0 0 0-.473-.17 2.623 2.623 0 0 0-.454-.044 1.846 1.846 0 0 0-.728.143c-.227.096-.43.24-.594.425-.18.206-.317.446-.401.707-.104.319-.153.653-.146.989a4.38 4.38 0 0 0 .096.93c.053.27.158.525.311.753.15.213.35.385.585.5.28.13.587.192.895.183.145-.003.29-.023.43-.06.17-.045.33-.121.472-.226.174-.128.322-.288.436-.471.15-.247.25-.521.295-.806h.75c-.04.316-.131.623-.268.911a2.48 2.48 0 0 1-.429.62c-.15.158-.322.29-.513.394-.166.09-.341.161-.523.214-.152.052-.31.089-.47.109-.136 0-.242.015-.31.015a2.779 2.779 0 0 1-.933-.167 2.23 2.23 0 0 1-.824-.527 2.61 2.61 0 0 1-.582-.93 3.955 3.955 0 0 1-.218-1.402 3.744 3.744 0 0 1 .184-1.203c.112-.341.29-.657.525-.93.23-.267.517-.48.84-.62a3.01 3.01 0 0 1 2.09-.06c.261.094.502.235.712.416.19.167.345.37.457.596.11.217.18.452.209.694l-.75-.003zM60.382 82.905c-.001.218-.021.436-.06.651a3.058 3.058 0 0 1-.532 1.296 2.381 2.381 0 0 1-1.246.906c-.619.18-1.276.18-1.894 0a2.381 2.381 0 0 1-1.247-.905 3.067 3.067 0 0 1-.532-1.297c-.08-.43-.08-.872 0-1.302a3.07 3.07 0 0 1 .532-1.296 2.378 2.378 0 0 1 1.247-.906 3.39 3.39 0 0 1 1.894 0c.26.082.505.207.724.37.202.15.378.33.523.536a3.064 3.064 0 0 1 .531 1.296c.039.215.059.433.06.65zm-.797 0a3.027 3.027 0 0 0-.136-.93 2.15 2.15 0 0 0-.395-.735 1.825 1.825 0 0 0-.622-.484 2.08 2.08 0 0 0-1.667 0c-.24.115-.453.28-.622.484a2.15 2.15 0 0 0-.395.735 3.225 3.225 0 0 0 0 1.86c.082.268.216.518.395.735.17.204.382.37.622.484a2.08 2.08 0 0 0 1.667 0c.24-.115.452-.28.622-.484a2.15 2.15 0 0 0 .395-.735c.093-.301.14-.615.136-.93zM64.885 85.094h1.648a1.29 1.29 0 0 0 .908-.282.984.984 0 0 0 .311-.76.89.89 0 0 0-.118-.487.863.863 0 0 0-.31-.294 1.247 1.247 0 0 0-.43-.143 3.163 3.163 0 0 0-.479-.037h-1.52v2l-.01.003zm-.771-5.039h2.516c.238-.004.475.035.7.115.188.067.36.173.506.31.135.129.24.284.311.456.07.176.105.363.103.552 0 .104-.01.208-.031.31a1.272 1.272 0 0 1-.345.62 1.34 1.34 0 0 1-.386.257c.096.038.202.084.311.143a1.24 1.24 0 0 1 .606.639c.08.197.117.408.11.62 0 .222-.043.443-.128.648a1.55 1.55 0 0 1-.37.536 1.755 1.755 0 0 1-.607.366c-.27.096-.554.142-.84.137h-2.46v-5.709h.004zm.77 2.413h1.394c.305.016.609-.053.877-.199a.783.783 0 0 0 .311-.722.743.743 0 0 0-.27-.62 1.5 1.5 0 0 0-.915-.214h-1.4v1.764l.004-.01zM73.127 82.65h1.79c.143 0 .284-.012.424-.037a.963.963 0 0 0 .37-.142.81.81 0 0 0 .267-.31c.142-.33.142-.703 0-1.033a.764.764 0 0 0-.264-.285.841.841 0 0 0-.333-.118 2.495 2.495 0 0 0-.31-.025h-1.926v1.938l-.018.013zm0 3.101h-.772v-5.696H75c.23 0 .461.024.687.072.214.043.417.125.6.242.18.118.326.279.426.468.118.232.174.49.165.75.004.183-.02.365-.071.54a1.24 1.24 0 0 1-.445.638c-.089.068-.181.13-.277.186.082.033.162.07.24.112a.727.727 0 0 1 .214.18.93.93 0 0 1 .156.31c.044.156.07.318.074.48l.047 1.033a1.462 1.462 0 0 0 0 .202.52.52 0 0 0 .044.152c.02.044.05.084.087.117a.694.694 0 0 0 .143.1v.127h-.933a2.165 2.165 0 0 1-.069-.338 6.334 6.334 0 0 1-.043-.425 9.985 9.985 0 0 1-.019-.4c-.003-.124 0-.214 0-.267 0-.12-.01-.238-.028-.356a.743.743 0 0 0-.137-.329.765.765 0 0 0-.31-.239 1.357 1.357 0 0 0-.545-.09h-1.866v2.444l-.012-.013zM83.747 83.407l-.842-2.508h-.016l-.914 2.508h1.772zm-2.012.682l-.597 1.66h-.796l2.149-5.7h.874l2.068 5.7h-.84l-.566-1.66h-2.292zM92.751 80.055h.75v5.696h-.868l-2.905-4.601h-.016v4.601h-.75v-5.696h.915l2.858 4.602h.016v-4.602zM98.352 85.094h1.496c.47.016.92-.195 1.207-.567a2.62 2.62 0 0 0 .45-1.656 2.435 2.435 0 0 0-.46-1.619 1.557 1.557 0 0 0-1.244-.54h-1.44v4.382h-.009zm-.771-5.039h2.317c.344-.005.686.064 1.001.202.291.13.55.325.756.567.215.257.378.553.479.872.116.364.172.744.168 1.125-.002.335-.04.669-.115.996a2.81 2.81 0 0 1-.398.948 2.179 2.179 0 0 1-1.922.983H97.58v-5.693z" fill="#FFF"/><path d="M97.242 38.854a18.89 18.89 0 0 1 5.079-5.097c2.432 2.641 5.408 4.551 8.649 5.212a13.813 13.813 0 0 0 1.474-6.456 22.75 22.75 0 0 0 4.525-2.84c4.575.192 9.103 1.674 12.776 4.651-7.399 11.119-24.184 12.062-32.516 4.53h.013z" fill="#FECA42"/><path d="M116.981 29.673a22.75 22.75 0 0 1-4.525 2.84 19.909 19.909 0 0 0-.165-2.592 24.924 24.924 0 0 1 4.69-.248z" fill="#F68F48"/><path d="M108.852 20.216c2.373-6.096 7.594-10.6 15.195-12.654 2.439 8.735-.743 17.014-7.066 22.114a24.924 24.924 0 0 0-4.69.248 25.415 25.415 0 0 0-3.44-9.708z" fill="#B2C748"/><path d="M112.291 29.921c.112.86.167 1.726.165 2.592a23.808 23.808 0 0 1-4.444 1.594 31.002 31.002 0 0 1-.463-2.995 24.905 24.905 0 0 1 4.742-1.185v-.006z" fill="#B78BB3"/><path d="M108.852 20.216a25.416 25.416 0 0 1 3.442 9.705 24.905 24.905 0 0 0-4.742 1.185c-.414-3.99.043-7.662 1.3-10.89z" fill="#0091C3"/><path d="M110.982 38.969c-3.244-.66-6.22-2.57-8.649-5.212a22.83 22.83 0 0 1 5.219-2.648c.101.98.256 1.978.463 2.995 1.53-.382 3.02-.915 4.444-1.59a13.813 13.813 0 0 1-1.474 6.455h-.003z" fill="#EE3F38"/><path d="M102.32 33.757c-5.361-5.851-8.086-15.255-5.193-22.678 4.851.93 8.975 4.576 11.722 9.134-1.244 3.228-1.714 6.902-1.3 10.89a22.829 22.829 0 0 0-5.228 2.654z" fill="#00ACDB"/></g></svg>